<?xml version="1.0" encoding="utf-8"?>
<!-- Generator: Adobe Illustrator 23.1.1, SVG Export Plug-In . SVG Version: 6.00 Build 0)  -->
<svg version="1.1" id="Layer_1" xmlns:sketch="http://www.bohemiancoding.com/sketch/ns"
	 xmlns="http://www.w3.org/2000/svg" xmlns:xlink="http://www.w3.org/1999/xlink" x="0px" y="0px" viewBox="0 0 46 46"
	 style="enable-background:new 0 0 46 46;" xml:space="preserve">
<style type="text/css">
	.st0{fill-rule:evenodd;clip-rule:evenodd;fill:#4285F4;}
	.st1{fill-rule:evenodd;clip-rule:evenodd;fill:#34A853;}
	.st2{fill-rule:evenodd;clip-rule:evenodd;fill:#FBBC05;}
	.st3{fill-rule:evenodd;clip-rule:evenodd;fill:#EA4335;}
	.st4{fill:none;}
</style>
<g id="Google-Button_1_" sketch:type="MSPage">
	<g transform="translate(-668.000000, -160.000000)" sketch:type="MSArtboardGroup">
	</g>
	<g id="btn_google_light_focus_1_" transform="translate(-1.000000, -1.000000)" sketch:type="MSArtboardGroup">
		<g id="button_1_" transform="translate(4.000000, 4.000000)" sketch:type="MSLayerGroup">
		</g>
		<g id="logo_googleg_48dp_1_" transform="translate(15.000000, 15.000000)" sketch:type="MSLayerGroup">
			<path id="Shape_1_" sketch:type="MSShapeGroup" class="st0" d="M31,9.5c0-1.5-0.3-3.3-0.5-4.6H9v8.9h12.3c-0.5,2.8-2,5.1-4.6,6.9
				v5.9h7.7C28.7,22.5,31,16.4,31,9.5L31,9.5z"/>
			<path sketch:type="MSShapeGroup" class="st1" d="M9,32c6.1,0,11.5-2,15.3-5.6l-7.7-5.6c-2,1.3-4.6,2.3-7.7,2.3
				c-5.9,0-11-4.1-12.8-9.5h-7.7v5.6C-7.9,26.9,0.1,32,9,32L9,32z"/>
			<path sketch:type="MSShapeGroup" class="st2" d="M-3.8,13.3c-0.5-1.3-0.8-2.8-0.8-4.3s0.3-3.1,0.8-4.3v-5.9h-7.7
				C-13.2,1.8-14,5.2-14,9s0.8,7.2,2.6,10.2L-3.8,13.3L-3.8,13.3z"/>
			<path sketch:type="MSShapeGroup" class="st3" d="M9-4.8c3.3,0,6.4,1.3,8.7,3.3l6.6-6.6C20.5-11.7,15.1-14,9-14
				C0.1-14-7.9-8.9-11.4-1.2l7.7,5.9C-2-0.7,3.1-4.8,9-4.8L9-4.8z"/>
			<path sketch:type="MSShapeGroup" class="st4" d="M-14-14h46v46h-46V-14z"/>
		</g>
		<g id="handles_square_1_" sketch:type="MSLayerGroup">
		</g>
	</g>
</g>
</svg>
