<svg id="OBJECTS" xmlns="http://www.w3.org/2000/svg" xmlns:xlink="http://www.w3.org/1999/xlink" viewBox="0 0 1920 1080"><defs><style>.cls-1{fill:url(#Degradado_sin_nombre_2);}.cls-14,.cls-15,.cls-16,.cls-2{fill:none;}.cls-3{fill:#dcd0fe;}.cls-4{fill:#6242ba;}.cls-5{fill:#bba4ff;}.cls-6{fill:#f3a9b8;}.cls-7{fill:#ea4272;}.cls-8{fill:#e87d91;}.cls-9{fill:#4f2caf;}.cls-10{fill:#dfd2fd;}.cls-11{fill:#d7c5ff;}.cls-12{fill:#9c89e5;}.cls-13{fill:#31193b;}.cls-14{stroke:#31193b;}.cls-14,.cls-15,.cls-16{stroke-miterlimit:10;}.cls-14,.cls-16{stroke-width:0.25px;}.cls-15{stroke:#f96c96;stroke-width:0.52px;}.cls-16{stroke:#bba4ff;}.cls-17{fill:#fff;}</style><linearGradient id="Degradado_sin_nombre_2" x1="960" y1="60.91" x2="960" y2="829.43" gradientUnits="userSpaceOnUse"><stop offset="0" stop-color="#fff"/><stop offset="0.9" stop-color="#ece9ff"/><stop offset="1" stop-color="#eae6ff"/></linearGradient></defs><title>2498169</title><rect class="cls-1" width="1920" height="1080"/><path class="cls-2" d="M278.21,938.22l5.71,9.33q-2.3-4.51-4.54-9.29Z"/><path class="cls-3" d="M301.77,1079.35l-96.61.65-.6-.65C194.25,1068,177.42,1043.07,166,1015h94Z"/><path class="cls-3" d="M214.42,945.09l-58.14-3.86c-6.24,22-.51,48.67,9.39,73.11h93.81Z"/><path class="cls-3" d="M413.45,1078.6l42.22-.29s-3.32-21-10.53-50.81l-37.26,38.67Z"/><path class="cls-3" d="M300.61,828.44c-28.19,4.2-38.73,20.41-39.66,41.07l60,4.34Z"/><polygon class="cls-3" points="364.38 1078.93 412.68 1078.6 390.71 1029.56 334.15 1029.56 364.38 1078.93"/><path class="cls-3" d="M407.57,1065.47,445,1026.68c-6.83-28.11-17.09-63.87-31.26-97.33l-42.59,54.7Z"/><polygon class="cls-3" points="312.96 996.33 282.15 1047.89 302.62 1079.34 363.55 1078.93 312.96 996.33"/><path class="cls-3" d="M370.77,983.32l42.6-54.72c-11.13-26.14-24.65-50.82-40.81-69.25l-33.41,53.38Z"/><path class="cls-3" d="M321.28,874.58l-60.35-4.37c-.71,20.68,8,45.62,18.11,67.33l71.51,2.38Z"/><path class="cls-3" d="M372.06,858.8C354.13,838.55,333,826,308.29,827.6c-2.44.16-4.74.41-7,.72L338.8,912Z"/><path class="cls-3" d="M281.72,1047.23l30.83-51.58-31-50.58c-8.13-10.74-17.88-21.52-28.91-29.89l-16.95,61.33Z"/><path class="cls-3" d="M283.92,947.55l49.79,81.3h56.68l-39.52-88.21-71.49-2.38Q281.63,943,283.92,947.55Z"/><path class="cls-3" d="M252.06,914.71c-18.13-13.56-39.66-20.51-63.08-10l46.21,71Z"/><path class="cls-3" d="M188.33,905c-1.18.55-2.36,1.12-3.55,1.76-15.46,8.25-24.24,20.08-28.31,33.78l57.47,3.82Z"/><path class="cls-4" d="M282.15,1047.89l-.11.19-.61-.36.29-.49-46-70.72,0,.15-.69-.18.21-.76-46.21-71-.65.3,25.61,39.36.7,0,0,.71h-.18l45.06,69.25h.65v.71h-.19l41.83,64.3h.85Z"/><path class="cls-4" d="M407.71,1066.34l-.51-.49.37-.38L371.1,984.05l-.13.17-.56-.44.36-.46-31.62-70.59-.1.16-.61-.38.36-.56-37.47-83.63c-.25,0-.47.09-.72.12L321,873.85l.59,0-.05.7h-.21l29.27,65.34.57,0,0,.71h-.22l39.52,88.21h.55v.71h-.23l22,49h.78l-5.57-12.43Z"/><path class="cls-4" d="M312.66,995.47l.61.36-.3.5,50.58,82.6h.83l-30.23-49.37h-.64v-.71h.2l-49.79-81.3,1.13,2.23c-1.12-1.57-2.29-3.14-3.48-4.71l31,50.58Z"/><path class="cls-4" d="M213.94,944.35l-57.47-3.82-.19.7,58.14,3.86Z"/><polygon class="cls-4" points="214.6 945.1 214.64 944.39 213.94 944.35 214.42 945.09 214.6 945.1"/><path class="cls-4" d="M235.71,976.51l16.95-61.33-.6-.47-16.87,61Z"/><polygon class="cls-4" points="234.98 976.48 235.67 976.66 235.71 976.51 235.19 975.72 234.98 976.48"/><path class="cls-4" d="M259.48,1014.34H165.67l.29.71h94Z"/><polygon class="cls-4" points="260.13 1015.05 260.13 1014.34 259.48 1014.34 259.94 1015.05 260.13 1015.05"/><polygon class="cls-4" points="312.55 995.65 281.72 1047.23 282.15 1047.89 312.96 996.33 312.55 995.65"/><polygon class="cls-4" points="281.43 1047.72 282.04 1048.08 282.15 1047.89 281.72 1047.23 281.43 1047.72"/><polygon class="cls-4" points="313.26 995.83 312.66 995.47 312.55 995.65 312.96 996.33 313.26 995.83"/><path class="cls-4" d="M321,873.85l-60-4.34c0,.23,0,.47,0,.7l60.35,4.37Z"/><polygon class="cls-4" points="321.49 874.59 321.54 873.89 320.95 873.85 321.28 874.58 321.49 874.59"/><path class="cls-4" d="M339.15,912.73l33.41-53.38-.5-.55L338.8,912Z"/><polygon class="cls-4" points="338.44 912.51 339.05 912.89 339.15 912.73 338.8 911.95 338.44 912.51"/><path class="cls-4" d="M350.87,940.64l-.32-.72L279,937.54c.12.24.23.48.34.72Z"/><polygon class="cls-4" points="351.09 940.65 351.12 939.94 350.55 939.92 350.87 940.64 351.09 940.65"/><path class="cls-4" d="M371.1,984.05l42.59-54.7-.32-.75-42.6,54.72Z"/><polygon class="cls-4" points="370.41 983.78 370.96 984.22 371.1 984.05 370.77 983.32 370.41 983.78"/><polygon class="cls-4" points="334.15 1029.56 390.71 1029.56 390.39 1028.85 333.71 1028.85 334.15 1029.56"/><polygon class="cls-4" points="390.94 1029.56 390.94 1028.85 390.39 1028.85 390.71 1029.56 390.94 1029.56"/><polygon class="cls-4" points="333.51 1028.85 333.51 1029.56 334.15 1029.56 333.71 1028.85 333.51 1028.85"/><polygon class="cls-4" points="1453.76 879.67 1453.92 870.28 1450.87 879.67 1453.76 879.67"/><path class="cls-4" d="M403.33,1030c-.07,8.52-.25,16.93-.48,24.93,0,.54,0,1.08-.05,1.62-.25,7.88-.54,15.35-.86,22.12l0,.68h-8.8l0-.62-2.37-49.16h0l0-.71-.06-1.21-1.9-39.52L387.5,963l-.05-1.07L385.77,927c5.71.6,9.68,8.69,12.38,21.19.07.3.13.6.19.9C402.54,969.21,403.57,1000.29,403.33,1030Z"/><path class="cls-4" d="M392.4,1079.35h-7.88l-.15-.56-13.17-49.23-.19-.71L347.4,940.52l-.19-.71-4.88-18.25-1.14-4.26-.84-3.13C351.89,912,362.49,944.05,371,983c.06.29.12.59.19.89l.21,1c.23,1.09.47,2.19.7,3.29,1.62,7.65,3.17,15.52,4.62,23.41-.63-5.68-1.19-11.31-1.66-16.82-.07-.71-.13-1.41-.18-2.11q-.53-6.33-.86-12.37c0-.36,0-.72-.05-1.07-.71-13.45-.63-25.48.64-34.59,1.49-10.73,4.65-17.43,10.14-17.67l.27,0,1.73,35.83,0,1.07,1.05,21.84,1.93,40.2.1,1.94.05,1,0,.71,2.37,49.17Z"/><path class="cls-4" d="M370.41,1079.35H359.7l-.28-.39c-15.69-22-35.69-51.38-49.95-76.79l-.39-.71c-8.71-15.58-15.21-29.62-17.17-39.51-.13-.65-.23-1.27-.32-1.88-.72-4.92-.13-8.64,2.11-10.77l46.92,79.55.42.71,29.09,49.32Z"/><path class="cls-4" d="M383.79,1079.35H371.23l-.28-.47-29.09-49.32-.42-.71-47.19-80a7.75,7.75,0,0,1,.81-.56C308.52,941,333.82,985,355,1028.85c.11.24.23.47.34.71l1.16,2.42c-.25-.8-.51-1.61-.76-2.42-.07-.23-.15-.47-.22-.71-10-32-19.22-66.15-21.46-88.77,0-.24,0-.48-.07-.71-1.25-13.45,0-22.71,5.24-24.83a4.09,4.09,0,0,1,.49-.18l.84,3.16,6,22.26.19.72,23.63,88.35.18.71,13.17,49.23Z"/><path class="cls-5" d="M293.7,949.31c.18-.17.36-.32.55-.47l-2.66-4.52Z"/><path class="cls-5" d="M371.23,1079.35h-.82l-.28-.47L341,1029.56l-.42-.71L293.7,949.3a6.09,6.09,0,0,1,.55-.46l47.19,80,.42.71L371,1078.88Z"/><path class="cls-5" d="M384.52,1079.35h-.73l-.15-.56-13.17-49.23-.18-.71L346.66,940.5l-.19-.72-6-22.26-.84-3.16.17-.06a1.33,1.33,0,0,1,.28-.1l.23,0,.84,3.13,1.14,4.26,4.88,18.25.19.71L371,1028.85l.19.71,13.17,49.23Z"/><path class="cls-5" d="M393.11,1079.35h-.71l0-.62L390,1029.56l0-.71-.05-1-.1-1.94-1.93-40.2-1.05-21.84,0-1.07-1.73-35.83c.24,0,.48,0,.71,0l1.68,34.93.05,1.07,1.22,25.16,1.9,39.52.06,1.21,0,.71h0l2.37,49.16Z"/><path class="cls-5" d="M432.41,1079.35H421.66c-.1-.27-.2-.54-.31-.81-2.08-5.42-4.5-11.79-7.16-18.93-.09-.24-.19-.49-.27-.73-3.24-8.64-6.82-18.38-10.59-28.88-4.68-13-9.65-27.16-14.61-41.88-.28-.82-.56-1.64-.83-2.46-1.8-5.36-3.6-10.8-5.39-16.27-.08-.27-.17-.54-.26-.81-2.58-8-5.13-16-7.59-24-6.5-21.17-12.41-42.25-16.91-61.56-.08-.32-.15-.64-.23-1a361,361,0,0,1-7.65-42.88c-2.41-23.26.1-39.09,10.48-41.46a12.17,12.17,0,0,1,1.68-.19L379.63,868l19.65,78.66.21.86,25.05,100.3.2.8,7.45,29.81Z"/><path class="cls-5" d="M447.13,763.43,445,1027.63l-.4,50.75v1H433.13l-.22-.89-7.59-30.39-.2-.81L400,946.86l-.21-.86-19.11-76.51-18-72c22.15-.08,41,69,54.6,140.78,1.26,6.65,2.48,13.32,3.65,20-.13-3.81-.24-7.63-.35-11.47C418.15,857.16,421.54,762.29,447.13,763.43Z"/><path class="cls-5" d="M513.19,803.62l-58.51,268.91-1.26,5.79-.22,1h-7.9v-1l.39-48.57,2.14-266.29c23.62,2.74,22.05,87.19,14.55,171.1,11.52-71,28.21-136.3,50.29-131.17C512.86,803.49,513,803.57,513.19,803.62Z"/><path class="cls-5" d="M522.53,862.92c-2.16,15.81-5.73,33.75-10.15,52.57-1.6,6.84-3.31,13.79-5.11,20.8-6.81,26.61-14.83,54-22.54,78.82-7.82,25.23-15.33,47.81-20.93,64.24h-9.88l.23-1,.86-4,58.85-270.51c.3.11.59.23.88.36a9.64,9.64,0,0,1,1.5.85,7.38,7.38,0,0,1,.8.58C525.76,812.69,526.46,834.3,522.53,862.92Z"/><path class="cls-4" d="M447.84,763.52l-2.14,266.29-.39,48.57v1h-.7v-1l.4-50.75,2.12-264.2h.07C447.42,763.43,447.62,763.5,447.84,763.52Z"/><path class="cls-4" d="M433.13,1079.35h-.72l-.22-.88-7.45-29.81-.2-.8-25.05-100.3-.21-.86L379.63,868,362,797.52c.24,0,.48-.08.71-.08l18,72L399.83,946l.21.86,25.08,100.4.2.81,7.59,30.39Z"/><path class="cls-4" d="M513.86,803.85,455,1074.36l-.86,4-.23,1h-.72l.22-1,1.26-5.79,58.51-268.91Z"/><polygon class="cls-5" points="1453.92 870.28 1453.76 879.67 1454.47 879.67 1454.67 867.98 1453.92 870.28"/><path class="cls-4" d="M1529.24,831.52l-74.57,229.35-.2,11.69h5s.13-.91.36-2.55l.19,0S1562.58,847.73,1529.24,831.52Z"/><path class="cls-4" d="M1439.47,1075.56l7.59-1.35-45.21-243.7C1371,850.49,1439.47,1075.56,1439.47,1075.56Z"/><path class="cls-4" d="M1448.75,1073.91l1.25-1.35h.12l3.84-11.82,4.32-260.85c-18.57,2.56-20.74,69.83-18.22,136.93-6.31-57.59-17-110.79-35-107.58a8.56,8.56,0,0,0-2.55.93l45.25,243.91Z"/><path class="cls-4" d="M1528.58,831.26c-.26-.1-.5-.23-.77-.31-20.06-5.69-40.62,62.1-55.43,126.54,6.34-74.51,8.58-157.73-13-157.72-.13,0-.25,0-.39,0l-4.28,258.64Z"/><path class="cls-2" d="M1401.85,830.51c.21-.13.44-.23.66-.34"/><path class="cls-5" d="M1402.51,830.17c-.22.11-.45.21-.66.34l45.21,243.7.7-.13Z"/><path class="cls-5" d="M1454.71,1058.45,1459,799.81c-.24,0-.47.05-.71.08L1454,1060.74Z"/><path class="cls-5" d="M1454.67,1060.87l74.57-229.35c-.21-.1-.44-.18-.66-.26l-73.87,227.19Z"/><path class="cls-2" d="M1633.79,926.91a241.69,241.69,0,0,1-15.19,20.41c3-3.6,6-7,8.87-10.34l7.44-10.28Z"/><path class="cls-2" d="M1642.29,917.7l-10.17,14.06c3.86-4.27,7.65-8.32,11.33-12.09Z"/><polygon class="cls-3" points="1565.11 1024.4 1598.26 1070.18 1639.67 1018.17 1605.42 968.67 1565.11 1024.4"/><path class="cls-3" d="M1633.79,926.91,1570,939.05l-24.35,59.88,39.49-3.38L1627.47,937c-2.91,3.31-5.86,6.74-8.87,10.34A241.69,241.69,0,0,0,1633.79,926.91Z"/><path class="cls-3" d="M1715.83,922.54l-25.28-41.43c-13.63,8-29.11,20.24-46.58,38L1675.65,973Z"/><path class="cls-3" d="M1632.12,931.76l-26.26,36.3,34.27,49.54,35-44-31.73-53.92C1639.77,923.44,1636,927.49,1632.12,931.76Z"/><path class="cls-3" d="M1772,909.64c-2-11.86-8.09-24.85-18.78-32.94L1731.54,904Z"/><path class="cls-3" d="M1695.52,949.18l66.69,12.67c7.32-17.11,10.6-32.2,10.6-43.36a52.78,52.78,0,0,0-.67-8.12L1731,904.59Z"/><path class="cls-3" d="M1752.67,876.29c-13.23-9.64-33.37-11.8-61.51,4.47L1716.3,922Z"/><path class="cls-3" d="M1637.38,771.38c-11.87-3.37-27.12-1.82-45.77,6.21a75.06,75.06,0,0,0-21.91,14.9l40.71,45.21Z"/><path class="cls-3" d="M1619.14,1045.09l67.58,11.59a286,286,0,0,0,43.6-43l-75-14Z"/><path class="cls-3" d="M1556.05,971.38l-46.49-47.2c-7,29.64-12,59.55-15.45,85.58l36,25.43Z"/><path class="cls-3" d="M1529.82,1035.87l-17.68,43.48h-25.06c.18-2.67.41-5.91.7-9.64h0c0-.5.08-1,.12-1.52.6-7.59,1.43-17.07,2.58-27.94v0c.16-1.48.32-3,.49-4.53v0c.85-7.79,1.85-16.22,3-25.1l3.11,2.2.62.44,17.16,12.12.58.41,9.18,6.49Z"/><path class="cls-3" d="M1584.55,996.31l-60.06,83H1512.9l32-78.62v0l.42-1,.22,0Z"/><path class="cls-3" d="M1664.84,800.19c-4.6-14.3-13.52-24.58-26.78-28.6l-13.45,33.07Z"/><path class="cls-3" d="M1610.11,838.43,1569.19,793c-14.35,13.84-26.27,33.81-36.14,57l50,55Z"/><path class="cls-3" d="M1582.77,905.66l-50-55c-9.42,22.24-17,47.34-23,72.69l46.59,47.3Z"/><path class="cls-3" d="M1570.28,938.27l64.07-12.18c14.65-22.19,24.58-45.22,29.81-66.57L1598,870.08Z"/><polygon class="cls-3" points="1597.8 1070.75 1590.95 1079.35 1525.36 1079.35 1564.67 1025.01 1597.8 1070.75"/><path class="cls-3" d="M1686,1057.27a330.56,330.56,0,0,1-31.41,22.08h-62.71l26.79-33.63Z"/><path class="cls-3" d="M1598.32,869.32l66-10.54c5.3-22.08,5.55-42.31.74-57.9l-40.76,4.52Z"/><path class="cls-3" d="M1695,949.8l-39.26,49.29,75,14a221.9,221.9,0,0,0,31.11-50.55Z"/><path class="cls-4" d="M1624.61,804.65l-.59.07.08.7.21,0-26,63.91-.62.1.11.7.2,0-27.73,68.19-.64.12.13.7.19,0-1.83,4.5h0l-22.52,55.37-.58.05.06.71.22,0-.42,1v0l-32,78.62h-.76l17.68-43.48.23.16.41-.58-.36-.26,12.48-30.7v0l13.46-33.09.16.16.51-.5-.38-.38L1567.6,943h0l.16-.39,15-36.91.15.16.53-.48-.38-.41,27-66.51.15.17.53-.47-.38-.42,27-66.32.69.2Z"/><path class="cls-4" d="M1730.93,903.86l-.1.7.2,0-35.51,44.59-.57-.11-.13.69.21,0-39.26,49.29-.58-.11-.12.7.2,0-36.13,45.37-.59-.1-.12.69.21,0-26.79,33.63h-.9l6.85-8.6.16.22.57-.41-.27-.38,41.41-52,.15.22.58-.4-.27-.4,35-44,.12.21.61-.36-.26-.45,40.18-50.45.13.21.6-.37-.26-.43,36.37-45.66.57.41L1731.54,904Z"/><path class="cls-4" d="M1632.12,931.76l-26.26,36.3-.14-.21-.58.41.28.41-40.31,55.73-.15-.21-.58.42.29.4-39.31,54.34h-.87l60.06-83,.77-.07-.06-.7h-.16L1627.47,937C1629,935.19,1630.58,933.46,1632.12,931.76Z"/><polygon class="cls-4" points="1564.67 1025.01 1597.8 1070.76 1598.26 1070.18 1565.11 1024.4 1564.67 1025.01"/><polygon class="cls-4" points="1597.96 1070.97 1598.53 1070.56 1598.26 1070.18 1597.8 1070.76 1597.96 1070.97"/><polygon class="cls-4" points="1564.96 1024.19 1564.39 1024.61 1564.67 1025.01 1565.11 1024.4 1564.96 1024.19"/><polygon class="cls-4" points="1605.42 968.67 1639.67 1018.17 1640.13 1017.6 1605.86 968.06 1605.42 968.67"/><polygon class="cls-4" points="1639.83 1018.39 1640.41 1017.99 1640.13 1017.6 1639.67 1018.17 1639.83 1018.39"/><polygon class="cls-4" points="1605.72 967.86 1605.14 968.26 1605.42 968.67 1605.86 968.06 1605.72 967.86"/><path class="cls-4" d="M1675.18,973.59l.47-.59L1644,919.16l-.52.51Z"/><polygon class="cls-4" points="1675.31 973.8 1675.91 973.44 1675.65 973 1675.18 973.59 1675.31 973.8"/><path class="cls-4" d="M1716.3,922l-25.14-41.19-.61.35,25.28,41.43Z"/><polygon class="cls-4" points="1715.96 922.75 1716.56 922.39 1716.3 921.96 1715.83 922.54 1715.96 922.75"/><path class="cls-4" d="M1731,904.59l41.11,5.78-.12-.73L1731.54,904Z"/><polygon class="cls-4" points="1730.93 903.87 1730.83 904.57 1731.03 904.6 1731.54 903.95 1730.93 903.87"/><path class="cls-4" d="M1695,949.8l66.9,12.72c.1-.23.18-.45.28-.67l-66.69-12.67Z"/><polygon class="cls-4" points="1694.95 949.07 1694.82 949.76 1695.03 949.8 1695.53 949.18 1694.95 949.07"/><path class="cls-4" d="M1655.27,999.72l75,14,.5-.63-75-14Z"/><polygon class="cls-4" points="1655.07 999.68 1655.27 999.72 1655.77 999.1 1655.19 998.99 1655.07 999.68"/><path class="cls-4" d="M1618.64,1045.72l67.34,11.55.74-.59-67.58-11.59Z"/><polygon class="cls-4" points="1618.43 1045.69 1618.64 1045.72 1619.14 1045.09 1618.56 1044.99 1618.43 1045.69"/><polygon class="cls-4" points="1545.31 999.67 1584.56 996.31 1585.1 995.55 1545.61 998.93 1545.31 999.67"/><polygon class="cls-4" points="1545.04 998.98 1545.1 999.69 1545.31 999.67 1545.61 998.93 1545.04 998.98"/><polygon class="cls-4" points="1585.33 996.25 1585.26 995.54 1585.1 995.55 1584.56 996.31 1585.33 996.25"/><path class="cls-4" d="M1530.1,1035.19l-36-25.43c0,.27-.07.53-.11.8l35.83,25.31Z"/><polygon class="cls-4" points="1530.06 1036.03 1530.47 1035.45 1530.1 1035.19 1529.83 1035.87 1530.06 1036.03"/><path class="cls-4" d="M1556.34,970.66l-46.59-47.3c-.07.27-.13.55-.19.82l46.49,47.2Z"/><polygon class="cls-4" points="1556.22 971.54 1556.72 971.05 1556.34 970.66 1556.05 971.38 1556.22 971.54"/><path class="cls-4" d="M1634.91,926.7l.6-.83-1.16.22-.56.82Z"/><path class="cls-4" d="M1570,939.05l63.83-12.14.56-.82-64.07,12.18Z"/><polygon class="cls-4" points="1569.64 938.39 1569.77 939.09 1569.96 939.05 1570.28 938.27 1569.64 938.39"/><path class="cls-4" d="M1583.07,904.93l-50-55-.3.72,50,55Z"/><polygon class="cls-4" points="1582.92 905.82 1583.45 905.35 1583.07 904.93 1582.77 905.66 1582.92 905.82"/><path class="cls-4" d="M1598,870.08l66.15-10.56c.06-.25.11-.49.17-.74l-66,10.54Z"/><polygon class="cls-4" points="1597.7 869.41 1597.81 870.12 1598.01 870.08 1598.32 869.32 1597.7 869.41"/><path class="cls-4" d="M1610.41,837.7l-40.71-45.21-.51.49,40.92,45.45Z"/><polygon class="cls-4" points="1610.26 838.59 1610.79 838.12 1610.41 837.7 1610.11 838.43 1610.26 838.59"/><path class="cls-5" d="M1567.43,941.91l-15.37,24.4-.39.62-36.39,57.79-.39.6-27,42.86-7,11.17H1480l10.5-39.11v0l7.25-27,.2-.74,21.1-78.67.21-.79,6.34-23.63c5.9,2.52,6.12,15.44,3.17,33.28,0,.29-.09.57-.15.86-3.43,20.28-10.85,46.71-18.64,71.47,10.23-21.4,21.66-43.18,32-57.91l.41-.59c9-12.66,17.08-19.89,22.81-16.78A5.76,5.76,0,0,1,1567.43,941.91Z"/><path class="cls-5" d="M1524.91,909.13l-6.24,23.28-.22.8L1497.31,1012l-.2.74-6.14,22.9v0l-11.72,43.67h-.68l2-56.21,1.7-47.24v0l.1-2.59h0l1.9-52.81a1.09,1.09,0,0,0,.18,0c5.24.23,8.12,7,9.35,17.67h0c.07.57.13,1.13.19,1.72h0c1.37,14.35.08,35-2.29,56.44l0,.27c0-.12,0-.24.07-.36v0c4.64-25.12,10.28-50,16.57-66.78v0c.6-1.61,1.22-3.15,1.83-4.6.1-.24.21-.47.31-.7,4.14-9.53,8.54-15.3,13.11-15.18h0a4.7,4.7,0,0,1,1.05.12A2.67,2.67,0,0,1,1524.91,909.13Z"/><path class="cls-5" d="M1483.57,920.52l-2,55.25h0l-.09,2.57h0l-1.68,46.61-2,54.38h-7.59c-.43-6.7-1-16.84-1.51-28.83h0c-.38-9.24-.71-19.58-.88-30.27h0c0-.74,0-1.47,0-2.21h0c-.44-32.39.69-67.59,6.46-85.53v0c1.83-5.69,4.13-9.64,7-11.21h0A5.9,5.9,0,0,1,1483.57,920.52Z"/><path class="cls-5" d="M1546,998.9l-.45.75c-.21.35-.42.71-.64,1.06v0q-1.12,1.86-2.29,3.74v0c-5.56,9-11.57,18.28-17.53,27.13l-.4.6c-13.22,19.62-26.15,37.33-33.43,47.13h-9.52l6.08-9.64h0l27.69-44,.38-.61,36.33-57.67.39-.62,15-23.86h0l.2-.31c.12.29.23.58.33.9h0C1570.88,952.93,1560.37,974.89,1546,998.9Z"/><path class="cls-4" d="M1480.59,1023.14l-2,56.21h-.72l2-54.38,1.68-46.61h0l.09-2.57h0l2-55.25a5.68,5.68,0,0,1,.72,0l-1.9,52.82-.1,2.59Z"/><path class="cls-4" d="M1525.58,909.37,1519.24,933l-.21.79-21.1,78.67-.2.74-7.25,27v0l-10.5,39.11h-.73l11.72-43.67v0l6.14-22.9.2-.74,21.14-78.81.22-.8,6.24-23.28A4.12,4.12,0,0,1,1525.58,909.37Z"/><path class="cls-4" d="M1567.8,942.65l-.2.31h0l-15,23.86-.39.62-36.33,57.67-.38.61-27.69,44h0l-6.08,9.64h-.83l7-11.17,27-42.86.39-.6,36.39-57.79.39-.62,15.37-24.4a6.77,6.77,0,0,1,.33.66Z"/><polygon class="cls-4" points="407.71 1066.34 407.88 1066.16 407.57 1065.47 407.2 1065.85 407.71 1066.34"/><path class="cls-2" d="M1494,1010.56c0-.27.07-.53.11-.8"/><path class="cls-2" d="M1569.19,793l.51-.49"/><path class="cls-4" d="M1624.31,805.4l40.76-4.52c-.07-.23-.16-.46-.23-.69l-40.23,4.47Z"/><polygon class="cls-4" points="1624.02 804.72 1624.1 805.42 1624.31 805.4 1624.61 804.66 1624.02 804.72"/><path class="cls-6" d="M1437.65,583.43s-8.53-13.58-6.88-15.94c1.45-1.88,6.07,6.91,6.07,6.91s-1.51-9.24-2.8-13.72,4.24-5.9,8.84,1.85,2.69,20.9,2.69,20.9Z"/><path class="cls-6" d="M1065.49,722.94s-10.26-3.24-11.55,12.14c0,8.81,2.83,8.58,2.83,8.58l11-8.58Z"/><polygon class="cls-7" points="882.77 896.63 882.48 986.66 882.18 1079.35 845.19 1079.35 835.6 990.79 831.01 948.36 823.2 990.77 806.89 1079.35 766.48 1079.35 772.04 985.83 777.34 896.63 882.77 896.63"/><path class="cls-8" d="M820.28,706.36h21.11a5.76,5.76,0,0,1,5.76,5.76v37.73a0,0,0,0,1,0,0H814.52a0,0,0,0,1,0,0V712.12A5.76,5.76,0,0,1,820.28,706.36Z" transform="translate(1661.66 1456.22) rotate(-180)"/><path class="cls-6" d="M804.7,675.23s-8.63-.92-8.63,8.13,11.12,10,11.12,10Z"/><path class="cls-6" d="M857,675.23s8.63-.92,8.63,8.13-11.12,10-11.12,10Z"/><rect class="cls-6" x="804.27" y="644.23" width="53.11" height="74.06" rx="9.37" transform="translate(1661.66 1362.53) rotate(-180)"/><polygon class="cls-9" points="760.75 909.95 760.68 923.62 759.83 1079.35 711.95 1079.35 699.45 976.73 679.99 1079.35 630.69 1079.35 638.98 923.83 639.72 909.95 760.75 909.95"/><path class="cls-10" d="M756.84,783.2c0-74.31-37.11-63.47-74.26-63.47S647,783.2,647,783.2L636.16,922.9c42.66,14.47,84.87,14.79,126.59,0Z"/><line class="cls-2" x1="678.26" y1="685" x2="675.87" y2="667.6"/><path class="cls-8" d="M701,732.53h0c-8.65,0-15.67-.23-15.67-8.88V697.53h31.35v26.12C716.66,732.3,709.64,732.53,701,732.53Z"/><rect class="cls-6" x="675.46" y="637.81" width="51.05" height="71.18" rx="9.01" transform="translate(1401.97 1346.8) rotate(180)"/><path class="cls-5" d="M1416.11,783.2c0-74.31-37.11-63.47-74.26-63.47s-35.6,63.47-35.6,63.47L1299,910q60.52,24.21,121,0Z"/><path class="cls-7" d="M1420,910l-.08,14.18,0,3.8-.41,75.69-.41,75.73h-45.72l-13-119.68-22,119.68H1290l9-169.4q50.51,18.09,101,6,8.38-2,16.78-4.86l.68-.23Z"/><path class="cls-6" d="M1335.14,667.6s-8.3-.88-8.3,7.82,10.69,9.58,10.69,9.58Z"/><path class="cls-6" d="M1385.36,667.6s8.3-.88,8.3,7.82S1383,685,1383,685Z"/><path class="cls-8" d="M1360.25,733.46h0c-8.65,0-15.67-1.16-15.67-9.81V697.53h31.35v26.12C1375.93,732.3,1368.91,733.46,1360.25,733.46Z"/><rect class="cls-6" x="1334.73" y="637.81" width="51.05" height="71.18" rx="9.01" transform="translate(2720.51 1346.8) rotate(180)"/><path class="cls-11" d="M1089.09,728.11s-36.75-2.4-43.3,38.69c-7.89,49.52,20.64,55.17-7.89,129.83h105.43s-23.39-27.11-4.74-89S1118.18,728.11,1089.09,728.11Z"/><path class="cls-8" d="M1091.39,744h0c-9,0-16.31-1.45-16.31-10.45V706.36h32.62v27.19C1107.7,742.55,1100.4,744,1091.39,744Z"/><line class="cls-2" x1="1067.75" y1="693.33" x2="1065.26" y2="675.23"/><path class="cls-6" d="M1091.39,718.3h0a26.65,26.65,0,0,1-26.56-26.56v-21a26.64,26.64,0,0,1,26.56-26.56h0A26.64,26.64,0,0,1,1118,670.79v21A26.64,26.64,0,0,1,1091.39,718.3Z"/><path class="cls-6" d="M608.12,915.49l-.07,22.2,0,6h0l-.33,102.39-.11,33.3H571.66l-3.22-29.76-9.22-85.22L543.45,1050,538,1079.35H498.77l1.93-32.46,6.57-110.6,1.24-20.8h99.61Z"/><path class="cls-7" d="M556.87,756.27S522.15,754,516,792.82c-7.45,46.79,19.5,52.13-7.45,122.67h99.61s-22.1-25.61-4.48-84.14S584.36,756.27,556.87,756.27Z"/><path class="cls-8" d="M559.05,776.81h0a15.41,15.41,0,0,1-15.41-15.41V735.72h30.82V761.4A15.41,15.41,0,0,1,559.05,776.81Z"/><path class="cls-6" d="M534.36,706.3s-8.16-.86-8.16,7.69,10.51,9.42,10.51,9.42Z"/><path class="cls-6" d="M583.73,706.3s8.16-.86,8.16,7.69-10.51,9.42-10.51,9.42Z"/><path class="cls-6" d="M559.05,747h0A25.17,25.17,0,0,1,534,721.9V702.11A25.17,25.17,0,0,1,559.05,677h0a25.16,25.16,0,0,1,25.09,25.09V721.9A25.16,25.16,0,0,1,559.05,747Z"/><path class="cls-6" d="M1272.94,894.94l-.29,89.14-.32,95.27h-38L1224.15,988l-4.56-41.05-7.79,41.23-17.22,91.19H1153l5.86-96.09,5.38-88.32Z"/><path class="cls-4" d="M1217,721.24s-37.87-2.47-44.62,39.88c-8.13,51,21.27,56.87-8.13,133.82h108.66s-24.11-27.94-4.89-91.79S1247,721.24,1217,721.24Z"/><path class="cls-8" d="M1219.41,743.66h0a16.81,16.81,0,0,1-16.81-16.81v-28h33.62v28A16.82,16.82,0,0,1,1219.41,743.66Z"/><path class="cls-6" d="M1192.48,666.74s-8.91-1-8.91,8.38S1195,685.4,1195,685.4Z"/><path class="cls-6" d="M1246.34,666.74s8.9-1,8.9,8.38-11.47,10.28-11.47,10.28Z"/><path class="cls-6" d="M1219.41,711.13h0A27.46,27.46,0,0,1,1192,683.75V662.16a27.46,27.46,0,0,1,27.38-27.37h0a27.45,27.45,0,0,1,27.37,27.37v21.59A27.46,27.46,0,0,1,1219.41,711.13Z"/><path class="cls-12" d="M1020.05,774.22c0-75.77-37.83-64.72-75.72-64.72S908,774.22,908,774.22l-7.4,129.25q61.71,21.13,123.42,0Z"/><path class="cls-3" d="M1024.05,903.47l-1,175.88H976.82L963.27,954.17l-23,125.18h-49l9.37-175.88q4.82,1.37,9.61,2.51c34.36,8.26,68.5,8.54,102.4.51Q1018.36,905.14,1024.05,903.47Z"/><path class="cls-8" d="M963.1,723.62h0c-8.83,0-16-1.3-16-10.12V686.86h32V713.5C979.08,722.32,971.92,723.62,963.1,723.62Z"/><path class="cls-6" d="M963.1,698.55h0a26.1,26.1,0,0,1-26-26V652a26.1,26.1,0,0,1,26-26h0a26.1,26.1,0,0,1,26,26v20.53A26.1,26.1,0,0,1,963.1,698.55Z"/><path class="cls-4" d="M808.9,732.53s-21,7.27-58.36,37.79-65.21,33.85-65.21,33.85l.23,23.34s69.52-8.62,118.08-56.87Z"/><path class="cls-7" d="M542.68,761.52s-49.32-31-57.11-120.56c-6.92,0-7.7,0-7.7,0s-10.68,110.74,39.06,164.82Z"/><path class="cls-7" d="M574.46,758.6s22.24,0,67.5,16.61S714,782,714,782l3.62,6.81s-64,33.82-125.69,4.12Z"/><path class="cls-4" d="M879.4,873.7A112.66,112.66,0,0,1,873.67,846l0-.35c-.15-2.06-.25-4.13-.28-6.19a100,100,0,0,1,3.73-28.69c.3-1,.61-2.11.93-3.17a120.75,120.75,0,0,0,3.85-16.75c.09-.59.18-1.17.25-1.74h0c1.45-10.91.74-20-1.53-27.6a43.26,43.26,0,0,0-6.19-12.84,38.47,38.47,0,0,0-3.08-3.85,42.76,42.76,0,0,0-6.78-6.08h0a54,54,0,0,0-17.4-8.13,70.58,70.58,0,0,0-18.61-2.46,43.23,43.23,0,0,0-14,2,42,42,0,0,0-8.19,3.48l-.07,0h0l0,0h0a38.44,38.44,0,0,0-9.76,7.81c-5.12,5.69-9.35,13.81-11.19,25.36-.32,2-.59,4-.79,5.87s-.36,3.68-.47,5.43c-.19,3.32-.22,6.43-.12,9.39,0,1,.08,2,.13,2.9.57,8.92,2.23,16.52,3.72,24.34a100.59,100.59,0,0,1,1.56,24.71v.14c-.13,2-.31,4.06-.56,6.09l0,.31a104.88,104.88,0,0,1-5,21.6c-7.24,20.81-18.76,62.5-18.76,116.93,2.39.47,4.79.91,7.18,1.32a337,337,0,0,0,51.16,4.94q6.19.12,12.4,0a335.76,335.76,0,0,0,46.88-4.13q6.09-1,12.17-2.15S896.47,924,879.4,873.7Z"/><path class="cls-4" d="M851.66,732.53s21,7.27,58.36,37.79,65,29,65,29v23.64s-69.57-4.05-118.13-52.3Z"/><path class="cls-10" d="M685.31,719.71s-27-2.79-77,35.73c-48.39,31.57-92,10.25-92,10.25l-2.95,7.12s22.34,32.61,69.33,27.4S664.29,771,664.29,771Z"/><path class="cls-11" d="M1105.05,729.48s21.74,4.7,62.46,30.53,72.36,23.5,72.36,23.5l-1.46,10s-69.6,15.31-123.58-26.78Z"/><path class="cls-10" d="M716.66,719.29S740,711.9,795.9,741.22c53.1,22.76,92.37-4.46,92.37-4.46l6.39,9.37S876,778,828.85,780.92s-85.42-14.7-85.42-14.7Z"/><path class="cls-11" d="M1063.83,735.08s-18.12,12.9-45.36,52.69S962.33,835,962.33,835l4.57,13.79s69.6-15.64,102.62-75.61Z"/><path class="cls-12" d="M978.88,708.94s27.12-2.59,72.94,40.86c44.89,36.36,89.63,19.33,89.63,19.33l3.61,15.15S1118.92,807,1072.71,797s-78.19-37.41-78.19-37.41Z"/><path class="cls-12" d="M944.33,709.5s-28.1-.58-73.93,42.87c-44.89,36.37-89.62,19.16-89.62,19.16l-5.36,12.94s27.88,25.07,74.09,15.07,78.19-37.41,78.19-37.41Z"/><path class="cls-5" d="M1337.53,720.4s-27.11.28-72.46,44.22c-37.62,41.59-87.14,22.4-87.14,22.4l-1.89,7.6s22.55,27.89,68.64,17.39,77.79-38.25,77.79-38.25Z"/><path class="cls-5" d="M1375.93,719.52s52.89-32.46,61.67-133.37h8s34.82,64.05-40.63,183Z"/><path class="cls-4" d="M1236.22,722.72s22.18,1.64,66.09,21.57,72.8,11.21,72.8,11.21l3,7.12s-51.22,30.15-127-4.41Z"/><path class="cls-4" d="M1202.6,723.29s-21.92-4.86-69.36,3.75c-34.8,6.32-57.91-.18-67.75-4.1a6.37,6.37,0,0,0-8.11,3.26h0a6.39,6.39,0,0,0,2.53,8.25c15.47,9.06,65.11,34.07,119.63,18.6Z"/><path class="cls-13" d="M559.05,670.39s-24.26,0-32.85,24.16-31.34,43.34-14.33,55.31,4.37,35.85,39.52,40.79,40.5-18.12,40.5-38.44,15.78-14.79,9.47-40.2S574.67,670.39,559.05,670.39Z"/><path class="cls-7" d="M700.24,635s-23.65-.61-29.69,27.29,13.09,52.58,30.43,52.58,33.27-18.92,30.25-51.32S700.24,635,700.24,635Z"/><path class="cls-13" d="M1101.55,637.23c15.94-17.08-22-21.87-24.89-9-.3,1.3,1.87,9.64,3.85,9,0,0-26.43,8.62-22,41.43,1.56,11.53,4.81,25.26,14.87,33.62,9,7.5,24.35,8,34.18,1.3,11.45-7.86,14.33-23.06,15.94-34.92C1128,645.85,1101.55,637.23,1101.55,637.23Z"/><path class="cls-7" d="M1256.06,663.23c-9.29-42-69-39.87-75.94,2.56a119.14,119.14,0,0,0-1.48,19.38V779.9c28,7.27,54.67,7.17,80,0V686.15A111.85,111.85,0,0,0,1256.06,663.23Z"/><path class="cls-9" d="M1382,633.57c-7.29-14.25-37-14.32-44.28,0-6.09,11.91-20.5,14.74-17.76,33.57s13.22,19.42,17.76,31.82c6.74,18.37,37.55,18.37,44.28,0,4.54-12.4,15-13,17.76-31.82S1388.11,645.48,1382,633.57Z"/><path class="cls-6" d="M485.57,641s2.61-15.82.17-17.36c-2.07-1.17-2.92,8.73-2.92,8.73s-2.2-9.11-2.74-13.74-6.2-3.79-7.43,5.14S477.87,641,477.87,641Z"/><path class="cls-6" d="M516.3,765.69s-13.58-8.53-15.94-6.88c-1.88,1.45,6.92,6.07,6.92,6.07s-9.25-1.5-13.73-2.8-5.9,4.25,1.86,8.85,17.94,1.88,17.94,1.88Z"/><path class="cls-6" d="M685.33,804.17s-15.87-2.32-17.36.14c-1.14,2.09,8.78,2.76,8.78,2.76s-9.07,2.36-13.69,3-3.68,6.26,5.27,7.34,17.23-3.09,17.23-3.09Z"/><path class="cls-6" d="M714,782s12.7-9.79,15.21-8.37c2,1.26-6.3,6.7-6.3,6.7s9.06-2.38,13.39-4.1,6.28,3.66-1,9-17.68,3.6-17.68,3.6Z"/><path class="cls-6" d="M780.78,771.53s-13.57-8.53-15.94-6.88c-1.88,1.45,6.92,6.07,6.92,6.07s-9.24-1.5-13.72-2.8-5.9,4.25,1.85,8.85,17.94,1.88,17.94,1.88Z"/><path class="cls-6" d="M962.33,835s-15.85,2.42-16.56,5.22c-.47,2.32,9.21.06,9.21.06s-8,4.91-12.22,6.87-1.68,7.06,7.19,5.47,14.8-10.31,14.8-10.31Z"/><path class="cls-6" d="M975.05,799.3S989.81,793,991.88,795c1.62,1.72-7.79,4.89-7.79,4.89s9.36,0,14-.58,5.15,5.12-3.23,8.44-19.8,1.25-19.8,1.25Z"/><path class="cls-6" d="M1141.45,769.13s14.75-6.27,16.82-4.27c1.63,1.73-7.79,4.9-7.79,4.9s9.37,0,14-.59,5.15,5.13-3.24,8.44-18-1-18-1Z"/><path class="cls-6" d="M1175.29,786.14s-14.76-6.28-16.83-4.27c-1.63,1.72,7.79,4.9,7.79,4.9s-9.36,0-14-.59-5.16,5.12,3.23,8.44,18-1,18-1Z"/><path class="cls-6" d="M1375.11,755.5s13.58-8.53,15.94-6.88c1.88,1.45-6.92,6.07-6.92,6.07s9.25-1.5,13.73-2.8,5.9,4.25-1.86,8.85-17.94,1.88-17.94,1.88Z"/><path class="cls-13" d="M520.76,862.59S483.82,944,483.82,1042.32c26.28,12.19,122.2,8.1,138.39,0,0,0,3.43-132-24.86-179.73C597.35,862.59,567.82,871.84,520.76,862.59Z"/><path class="cls-13" d="M1147.21,947.41a564.31,564.31,0,0,0-4,67.66l-.29,64.28h-37.2l-14.18-131-24.12,131H1027l3.74-62.86c1.39-23.41,2-46.88.82-70.29-2.35-45.25,11.86-65.47,11.86-65.47l0,0c4.81,2,11.74,3.6,19.88,4.71,1.16.16,2.35.31,3.56.45a200.54,200.54,0,0,0,45.19-.2c1.08-.13,2.16-.27,3.23-.43a118.3,118.3,0,0,0,20.12-4.55C1145.77,895.87,1151.43,913.6,1147.21,947.41Z"/><path class="cls-13" d="M1265,814.56c-30.64,6-60.46,6.18-89.33-.25,0,0-21,73.14-21,167.67,31.77,10.83,110.69,5.17,128.44,0C1283.06,982,1281.48,859.46,1265,814.56Z"/><path class="cls-5" d="M682.58,719.73l2.73-1.27s0,13.1,15.67,13.1,15.69-13.65,15.69-13.65l2.4.91s2.7,17.33-18.09,17.33S682.58,719.73,682.58,719.73Z"/><path class="cls-4" d="M947.11,706.36s.95,14.77,16,14.77,16-15.36,16-15.36l4.78,3.45s.24,17.64-20.76,17.64-21-17.2-21-17.2Z"/><path class="cls-13" d="M789.26,839.44l-.6,6.54s36.47,12.35,85,0l-.28-6.54C825.47,849.86,789.26,839.44,789.26,839.44Z"/><path class="cls-14" d="M913.36,773s23.1-21.78,1.6-53.8"/><path class="cls-14" d="M1018.8,776s-32.85-14.12-5.37-55.56"/><path class="cls-14" d="M650.11,938.48,689.48,946s2.75,30.74-22.07,30.74S650.11,938.48,650.11,938.48Z"/><path class="cls-14" d="M748.8,938.48,709.43,946s-2.75,30.74,22.07,30.74S748.8,938.48,748.8,938.48Z"/><path class="cls-14" d="M1307.14,901.23s57.4,16.72,104.58,0"/><path class="cls-15" d="M1082,637.49s7.62,5.75,18,0"/><path class="cls-4" d="M1044.57,877.12s47.41,12.52,89.85,0l1.06,3.61s-14.23,7.42-45.45,7.42-46.57-7.42-46.57-7.42Z"/><polygon class="cls-13" points="1063.38 887.85 1063.38 880.64 1066.94 881.11 1066.94 888.67 1063.38 887.85"/><polygon class="cls-13" points="1115.37 888.15 1115.37 881.16 1112.14 881.57 1112.14 888.15 1115.37 888.15"/><path class="cls-4" d="M614.83,1044.68l-.8.18c0-121.12-22.79-180.19-23-180.77l.72-.14C592,864.53,614.83,923.43,614.83,1044.68Z"/><path class="cls-16" d="M652.27,730.86s9.43,19,0,44.5"/><path class="cls-16" d="M749.87,766.11s-10.06-17.32,0-41.08"/><polyline class="cls-16" points="899.3 1079.35 910.21 906.5 910.24 905.98"/><polyline class="cls-16" points="1015.41 1079.35 1012.65 907.01 1012.64 906.49 1012.64 906.48"/><line class="cls-16" x1="970.34" y1="834.95" x2="975.05" y2="846.43"/><path class="cls-13" d="M845.6,641.18c-9.33-3.29-19.69-2-28.48,2.47a44.83,44.83,0,0,0-13.92,10.91l0-.09s-8.08,9.47-11.62,16.19-24.77,26-21.67,44.37a30,30,0,0,1,5.69-14.39c-2,4.87-2.08,10.28,1.72,17.66,8.26-12.22,29.95,5.08,65.64,5.08C875.11,723.38,884.43,654.88,845.6,641.18Z"/><path class="cls-9" d="M994.55,644.23c0-9.6-7.69-15.13-15.46-18.26-11-4.42-23.5-4.4-33.58,1.77a25.82,25.82,0,0,0-12.41,17.7H933v.31a32.5,32.5,0,0,0-.54,5.68c0,5.17.13,10.06.33,14.6l-.33,32.51,1.84-6.41v6.41h57.38s.24-2.33.92-12.74l1.92,12.74Z"/><path class="cls-12" d="M1320.27,725.18s6-12.25,20.21-9.68,16.34,8.66,24.87,4.9,12.92-9.27,20.32-9.27c0,21.62-2.82,38.19-22.45,41.76S1340.11,723.06,1320.27,725.18Z"/><polygon class="cls-12" points="1173.5 793.63 1175.29 786.14 1177.93 787.02 1176.05 794.62 1173.5 793.63"/><rect class="cls-12" x="1437.6" y="583.43" width="7.97" height="2.73"/><path class="cls-17" d="M264.22,604.66H409s-7.54-36.19-49.75-24.12c-40.72-40.71-69.36-2.47-69.36-2.47S264.22,576,264.22,604.66Z"/><path class="cls-17" d="M1534.4,543.37h144.75s-7.54-36.19-49.76-24.13c-40.71-40.71-69.36-2.46-69.36-2.46S1534.4,514.72,1534.4,543.37Z"/><path class="cls-17" d="M1372.72,468.86h111.81s-10.69-27.83-39.25-16C1425.85,420.7,1372.72,432.33,1372.72,468.86Z"/></svg>